<?xml version="1.0" encoding="UTF-8" standalone="no"?>
<!-- Created with Inkscape (http://www.inkscape.org/) -->

<svg
   xmlns:dc="http://purl.org/dc/elements/1.1/"
   xmlns:cc="http://creativecommons.org/ns#"
   xmlns:rdf="http://www.w3.org/1999/02/22-rdf-syntax-ns#"
   xmlns:svg="http://www.w3.org/2000/svg"
   xmlns="http://www.w3.org/2000/svg"
   xmlns:sodipodi="http://sodipodi.sourceforge.net/DTD/sodipodi-0.dtd"
   xmlns:inkscape="http://www.inkscape.org/namespaces/inkscape"
   width="95.517845"
   height="46.962139"
   id="svg2"
   version="1.1"
   inkscape:version="0.48.4 r9939"
   sodipodi:docname="logo.svg">
  <defs
     id="defs4" />
  <sodipodi:namedview
     id="base"
     pagecolor="#c2ecfa"
     bordercolor="#666666"
     borderopacity="1.0"
     inkscape:pageopacity="1"
     inkscape:pageshadow="2"
     inkscape:zoom="1.979899"
     inkscape:cx="11.05755"
     inkscape:cy="18.880401"
     inkscape:document-units="px"
     inkscape:current-layer="layer1"
     showgrid="false"
     fit-margin-top="0"
     fit-margin-left="0"
     fit-margin-right="0"
     fit-margin-bottom="0"
     inkscape:window-width="1280"
     inkscape:window-height="744"
     inkscape:window-x="0"
     inkscape:window-y="0"
     inkscape:window-maximized="1" />
  <metadata
     id="metadata7">
    <rdf:RDF>
      <cc:Work
         rdf:about="">
        <dc:format>image/svg+xml</dc:format>
        <dc:type
           rdf:resource="http://purl.org/dc/dcmitype/StillImage" />
        <dc:title />
      </cc:Work>
    </rdf:RDF>
  </metadata>
  <g
     inkscape:label="Layer 1"
     inkscape:groupmode="layer"
     id="layer1"
     transform="translate(-148.16123,-295.23166)">
    <g
       id="g3171">
      <g
         id="text2987"
         style="font-size:24px;font-style:normal;font-variant:normal;font-weight:normal;font-stretch:normal;line-height:125%;letter-spacing:0px;word-spacing:0px;fill:#ac4796;fill-opacity:1;stroke:none;font-family:Lobster Two;-inkscape-font-specification:Lobster Two">
        <path
           id="path3810"
           style=""
           d="m 158.74523,313.23166 2.544,-12.576 0.96,12.576 2.736,0 -1.344,-17.664 -2.736,0 -2.808,13.944 -2.4,-13.944 c -0.432,-0.24 -0.96,-0.336 -1.464,-0.336 -2.664,0 -6.072,2.664 -6.072,5.832 0,1.872 1.176,2.736 2.88,2.736 -0.216,-0.144 -0.888,-0.6 -0.888,-2.784 0,-2.664 1.128,-4.128 3.144,-4.584 l -2.64,16.8 1.44,0 1.944,-12.336 2.136,12.336 2.568,0" />
        <path
           id="path3812"
           style=""
           d="m 174.3201,304.23166 c 0,-2.544 -1.608,-3.12 -3.192,-3.12 -3.45599,0 -4.584,4.032 -4.584,6.72 0,4.10399 2.136,5.544 4.344,5.544 2.448,0 4.728,-2.088 5.544,-4.44 l -0.768,0 c -0.84,1.872 -2.28,2.616 -3.792,2.616 -1.368,0 -2.52,-0.576 -2.76,-3.12 3.24,-0.36 5.208,-1.968 5.208,-4.2 m -5.232,3.264 c 0,-2.352 0.816,-5.208 2.496,-5.208 0.768,0 1.2,0.504 1.2,1.704 0,1.8 -1.44,3.144 -3.696,3.504" />
        <path
           id="path3814"
           style=""
           d="m 175.6206,301.23166 0,12 2.4,0 0,-7.68 c 0.456,-1.872 1.176,-2.616 2.16,-2.616 0.816,0 1.536,0.528 1.536,2.592 0,0.648 -0.072,3.576 -0.072,4.176 0,1.944 0.792,3.672 2.808,3.672 1.008,0 2.568,-0.43201 3.288,-4.44 l -0.888,0 c -0.384,1.824 -0.984,2.616 -1.728,2.616 -1.056,0 -1.08,-1.56 -1.08,-2.064 0,-1.248 0.144,-2.952 0.144,-4.08 0,-1.848 -0.384,-4.296 -3.288,-4.296 -0.816,0 -1.944,0.192 -2.88,1.944 l 0,-1.824 -2.4,0" />
        <path
           id="path3816"
           style=""
           d="m 186.82373,301.23166 0,12 2.4,0 0,-7.68 c 0.456,-1.872 1.176,-2.616 2.16,-2.616 0.816,0 1.536,0.528 1.536,2.592 0,0.648 -0.072,3.576 -0.072,4.176 0,1.944 0.792,3.672 2.808,3.672 1.008,0 2.568,-0.43201 3.288,-4.44 l -0.888,0 c -0.384,1.824 -0.984,2.616 -1.728,2.616 -1.056,0 -1.08,-1.56 -1.08,-2.064 0,-1.248 0.144,-2.952 0.144,-4.08 0,-1.848 -0.38401,-4.296 -3.288,-4.296 -0.816,0 -1.944,0.192 -2.88,1.944 l 0,-1.824 -2.4,0" />
        <path
           id="path3818"
           style=""
           d="m 203.73885,301.23166 0,7.824 c 0,1.584 -0.984,2.496 -1.872,2.496 -0.84,0 -1.44,-0.6 -1.44,-2.16 l 0,-8.16 -2.4,0 0,8.424 c 0,2.736 1.512,3.72 3.384,3.72 0.84,0 1.704,-0.432 2.328,-1.368 l 0,1.512 c -1.56,0.648 -3.144,1.704 -3.144,3.36 0,1.296 0.96,2.352 2.544,2.352 1.608,0 3,-1.104 3,-4.104 l 0,-1.536 c 2.136,-0.648 3.192,-1.248 3.696,-4.656 l -0.888,0 c -0.336,2.688 -1.176,3.264 -2.808,3.792 l 0,-11.496 -2.4,0 m -1.056,16.752 c -0.72,0 -1.152,-0.48 -1.152,-1.2 0,-0.888 0.624,-1.584 2.208,-2.304 l 0,1.68 c 0,1.128 -0.192,1.824 -1.056,1.824" />
        <path
           id="path3820"
           style=""
           d="m 208.49385,297.77566 c 0,0.888 0.696,1.584 1.584,1.584 0.864,0 1.608,-0.696 1.608,-1.584 0,-0.864 -0.744,-1.608 -1.608,-1.608 -0.888,0 -1.584,0.744 -1.584,1.608 m 0.432,3.456 0,8.76 c 0,1.584 0.456,3.384 2.376,3.384 0.936,0 2.016,-0.432 2.016,-1.536 0,-0.168 -0.024,-0.288 -0.048,-0.432 -0.192,0.072 -0.648,0.144 -0.888,0.144 -1.056,0 -1.056,-1.416 -1.056,-2.16 l 0,-8.16 -2.4,0" />
      </g>
      <g
         id="text2991"
         style="font-size:17.86879158px;font-style:normal;font-variant:normal;font-weight:normal;font-stretch:normal;line-height:125%;letter-spacing:0px;word-spacing:0px;fill:#ac4796;fill-opacity:1;stroke:none;font-family:Lobster Two;-inkscape-font-specification:Lobster Two">
        <path
           id="path3807"
           style=""
           d="m 155.00103,315.7831 0,0.8577 c -0.33951,-0.73261 -1.07213,-0.94704 -1.69754,-0.94704 -2.39441,0 -3.35933,2.85901 -3.35933,5.0926 0,2.89475 1.60819,4.03835 3.0377,4.03835 1.1436,0 1.98343,-0.75049 2.34081,-1.67966 0.21442,1.1972 0.87557,1.67966 1.60819,1.67966 0.69688,0 1.34016,-0.42885 1.34016,-1.1436 0,-0.12508 -0.0179,-0.21443 -0.0357,-0.32164 -0.14295,0.0536 -0.41098,0.10721 -0.58967,0.10721 -0.83983,0 -0.8577,-1.05426 -0.8577,-1.60819 l 0,-6.07539 -1.78688,0 m -1.64393,7.68358 c -0.8577,0 -1.53672,-0.80409 -1.53672,-2.73392 0,-1.78688 0.58968,-4.05622 2.09065,-4.05622 0.60754,0 0.92918,0.37525 1.09,0.76836 l 0,4.07409 c 0,1.03638 -0.73262,1.94769 -1.64393,1.94769" />
      </g>
      <g
         id="text2995"
         style="font-size:26.5000515px;font-style:normal;font-variant:normal;font-weight:normal;font-stretch:normal;line-height:125%;letter-spacing:0px;word-spacing:0px;fill:#ac4796;fill-opacity:1;stroke:none;font-family:Lobster Two;-inkscape-font-specification:Lobster Two">
        <path
           id="path3794"
           style=""
           d="m 171.88845,333.68728 c -0.1855,0.4505 -1.56351,0.5565 -3.04751,0.5565 -1.2985,0 -2.67651,-0.0795 -3.47151,-0.0795 l 8.69202,-18.47053 -9.01002,0 c -1.802,0 -2.915,0.954 -2.915,1.9345 0,1.1395 1.007,1.85501 1.8285,1.85501 0.7155,0 1.1395,-0.55651 1.1395,-1.11301 0,-0.3975 -0.1855,-0.795 -0.636,-1.0865 0.053,-0.424 1.11301,-0.53 2.25251,-0.53 1.007,0 3.392,0.106 3.7895,0.1325 l -8.71851,18.68254 9.56652,0 c 1.749,0 2.8355,-1.27201 2.8355,-2.46451 0,-1.06 -0.9805,-1.59 -1.7225,-1.59 -0.689,0 -1.2455,0.3975 -1.2455,1.06 0,0.371 0.2385,0.848 0.6625,1.113" />
        <path
           id="path3796"
           style=""
           d="m 182.60192,322.31876 0,1.272 c -0.5035,-1.0865 -1.6165,-1.4045 -2.4645,-1.4045 -3.60401,0 -5.03501,4.21351 -5.03501,7.47302 0,4.452 2.385,6.06851 4.5315,6.06851 1.66951,0 2.91501,-1.13951 3.44501,-2.51751 0.265,1.325 0.954,2.51751 2.57051,2.51751 1.166,0 2.8885,-0.47701 3.6835,-4.90251 l -0.9805,0 c -0.3975,1.908 -1.06,2.8885 -1.908,2.8885 -1.1395,0 -1.1925,-1.696 -1.1925,-2.385 l 0,-9.01002 -2.65001,0 m -2.3055,11.39502 c -1.53701,0 -2.41151,-1.219 -2.41151,-4.24001 0,-2.4645 0.87451,-5.83001 3.15351,-5.83001 0.795,0 1.325,0.58301 1.5635,1.13951 l 0,6.04201 c 0,1.6165 -1.219,2.8885 -2.3055,2.8885" />
        <path
           id="path3798"
           style=""
           d="m 188.30937,322.31876 0,13.25003 2.65,0 0,-8.48002 c 0.5035,-2.067 1.29851,-2.88851 2.38501,-2.88851 0.901,0 1.696,0.58301 1.696,2.86201 0,0.7155 -0.0795,3.94851 -0.0795,4.61101 0,2.1465 0.87451,4.05451 3.10051,4.05451 1.113,0 2.8355,-0.47701 3.6305,-4.90251 l -0.9805,0 c -0.424,2.014 -1.0865,2.8885 -1.908,2.8885 -1.166,0 -1.1925,-1.7225 -1.1925,-2.279 0,-1.378 0.159,-3.25951 0.159,-4.50501 0,-2.0405 -0.42401,-4.74351 -3.63051,-4.74351 -0.901,0 -2.14651,0.212 -3.18001,2.1465 l 0,-2.014 -2.65,0" />
        <path
           id="path3800"
           style=""
           d="m 200.67951,322.31876 0,13.25003 2.65,0 0,-8.48002 c 0.5035,-2.067 1.29851,-2.88851 2.38501,-2.88851 0.901,0 1.696,0.58301 1.696,2.86201 0,0.7155 -0.0795,3.94851 -0.0795,4.61101 0,2.1465 0.87451,4.05451 3.10051,4.05451 1.113,0 2.8355,-0.47701 3.6305,-4.90251 l -0.9805,0 c -0.424,2.014 -1.0865,2.8885 -1.908,2.8885 -1.166,0 -1.1925,-1.7225 -1.1925,-2.279 0,-1.378 0.159,-3.25951 0.159,-4.50501 0,-2.0405 -0.42401,-4.74351 -3.63051,-4.74351 -0.901,0 -2.14651,0.212 -3.18001,2.1465 l 0,-2.014 -2.65,0" />
        <path
           id="path3802"
           style=""
           d="m 219.35666,322.31876 0,8.63902 c 0,1.749 -1.0865,2.756 -2.067,2.756 -0.9275,0 -1.59,-0.6625 -1.59,-2.385 l 0,-9.01002 -2.65001,0 0,9.30152 c 0,3.021 1.66951,4.10751 3.73651,4.10751 0.9275,0 1.8815,-0.47701 2.5705,-1.51051 l 0,1.66951 c -1.7225,0.7155 -3.4715,1.8815 -3.4715,3.71 0,1.43101 1.06,2.59701 2.809,2.59701 1.77551,0 3.31251,-1.21901 3.31251,-4.53151 l 0,-1.696 c 2.3585,-0.7155 3.52451,-1.37801 4.08101,-5.14101 l -0.9805,0 c -0.371,2.968 -1.29851,3.604 -3.10051,4.18701 l 0,-12.69353 -2.65001,0 m -1.166,18.49704 c -0.795,0 -1.272,-0.53001 -1.272,-1.32501 0,-0.9805 0.689,-1.749 2.438,-2.544 l 0,1.855 c 0,1.2455 -0.212,2.01401 -1.166,2.01401" />
        <path
           id="path3804"
           style=""
           d="m 224.60699,318.50275 c 0,0.9805 0.7685,1.74901 1.749,1.74901 0.954,0 1.7755,-0.76851 1.7755,-1.74901 0,-0.954 -0.8215,-1.7755 -1.7755,-1.7755 -0.9805,0 -1.749,0.8215 -1.749,1.7755 m 0.477,3.81601 0,9.67252 c 0,1.749 0.5035,3.73651 2.6235,3.73651 1.0335,0 2.22601,-0.47701 2.22601,-1.69601 0,-0.1855 -0.0265,-0.318 -0.053,-0.477 -0.212,0.0795 -0.7155,0.159 -0.9805,0.159 -1.16601,0 -1.16601,-1.5635 -1.16601,-2.385 l 0,-9.01002 -2.65,0" />
      </g>
      <g
         id="text2999"
         style="font-size:42.23708344px;font-style:normal;font-variant:normal;font-weight:normal;font-stretch:normal;line-height:125%;letter-spacing:0px;word-spacing:0px;fill:#ac4796;fill-opacity:1;stroke:none;font-family:Lobster Two;-inkscape-font-specification:Lobster Two">
        <path
           id="path3791"
           style=""
           d="m 243.67907,313.00618 c 0,-3.63239 -2.61871,-6.50451 -8.02505,-6.50451 -5.57529,0 -7.56044,3.21002 -7.56044,5.87095 0,2.9566 2.1541,4.47713 4.097,4.47713 1.18264,0 2.23857,-0.59132 2.70317,-1.77395 -2.44974,-0.38014 -3.54791,-2.11186 -3.54791,-3.33673 0,-2.02738 1.90067,-3.37897 3.88581,-3.37897 2.19633,0 4.47713,1.22488 4.47713,4.60384 0,5.27963 -5.99766,7.47597 -5.99766,12.12205 0,0.38013 0.0422,0.76026 0.12671,1.18263 l 1.9429,0 c 0.29566,-5.702 7.89834,-7.18031 7.89834,-13.26244 m -11.65744,20.48498 c 0,1.56278 1.22488,2.78765 2.78765,2.78765 1.52053,0 2.82989,-1.22487 2.82989,-2.78765 0,-1.52053 -1.30936,-2.82988 -2.82989,-2.82988 -1.56277,0 -2.78765,1.30935 -2.78765,2.82988" />
      </g>
    </g>
  </g>
</svg>
